<svg width="33" height="33" viewBox="0 0 33 33" fill="none" xmlns="http://www.w3.org/2000/svg">
<circle cx="16.5" cy="16.5" r="16.5" fill="white"/>
<path fill-rule="evenodd" clip-rule="evenodd" d="M29.1872 17.0257C29.0725 17.0258 28.9592 17.0018 28.8544 16.9553L21.8753 13.83C21.5829 13.6986 21.3949 13.4079 21.3949 13.0874C21.3949 12.7669 21.5829 12.4762 21.8753 12.3448L28.8544 9.23035C29.2645 9.04828 29.7447 9.23192 29.9287 9.6412C30.1106 10.0516 29.9264 10.5319 29.5167 10.7155L24.1995 13.0885L29.5178 15.4701C29.8683 15.6264 30.0618 16.0064 29.982 16.3817C29.9022 16.7571 29.5709 17.0255 29.1872 17.0257V17.0257Z" fill="#67BECE"/>
<path fill-rule="evenodd" clip-rule="evenodd" d="M19.6759 28.3639C12.003 28.3639 5.29493 23.1844 3.36641 15.7673C3.25326 15.333 3.51365 14.8891 3.948 14.776C4.38236 14.6628 4.82621 14.9232 4.93936 15.3575C6.68906 22.0627 12.7462 26.7404 19.6759 26.7379C20.1249 26.7379 20.4889 27.1019 20.4889 27.5509C20.4889 27.9999 20.1249 28.3639 19.6759 28.3639V28.3639Z" fill="#3F54A3"/>
<path fill-rule="evenodd" clip-rule="evenodd" d="M16.8746 21.6125C16.4255 21.6125 16.0615 21.2484 16.0615 20.7994V5.34416C16.0615 4.89514 16.4255 4.53113 16.8746 4.53113C17.3236 4.53113 17.6876 4.89514 17.6876 5.34416V20.7994C17.6876 21.2484 17.3236 21.6125 16.8746 21.6125V21.6125Z" fill="#67BECE"/>
</svg>
